<?xml version="1.0" encoding="UTF-8" standalone="no"?>
<svg
   xmlns:dc="http://purl.org/dc/elements/1.1/"
   xmlns:cc="http://creativecommons.org/ns#"
   xmlns:rdf="http://www.w3.org/1999/02/22-rdf-syntax-ns#"
   xmlns:svg="http://www.w3.org/2000/svg"
   xmlns="http://www.w3.org/2000/svg"
   xmlns:sodipodi="http://sodipodi.sourceforge.net/DTD/sodipodi-0.dtd"
   xmlns:inkscape="http://www.inkscape.org/namespaces/inkscape"
   id="Layer_2"
   data-name="Layer 2"
   viewBox="0 0 110 55"
   version="1.1"
   sodipodi:docname="britbox.svg"
   width="110"
   height="55"
   inkscape:version="0.92.4 (5da689c313, 2019-01-14)">
  <metadata
     id="metadata24">
    <rdf:RDF>
      <cc:Work
         rdf:about="">
        <dc:format>image/svg+xml</dc:format>
        <dc:type
           rdf:resource="http://purl.org/dc/dcmitype/StillImage" />
      </cc:Work>
    </rdf:RDF>
  </metadata>
  <sodipodi:namedview
     pagecolor="#ffffff"
     bordercolor="#666666"
     borderopacity="1"
     objecttolerance="10"
     gridtolerance="10"
     guidetolerance="10"
     inkscape:pageopacity="0"
     inkscape:pageshadow="2"
     inkscape:window-width="640"
     inkscape:window-height="480"
     id="namedview22"
     showgrid="false"
     inkscape:zoom="2.5175439"
     inkscape:cx="56"
     inkscape:cy="26.5"
     inkscape:window-x="0"
     inkscape:window-y="0"
     inkscape:window-maximized="0"
     inkscape:current-layer="Layer_2" />
  <defs
     id="defs9">
    <style
       id="style2">.cls-1{fill:url(#linear-gradient);}.cls-2{fill:none;}.cls-3{fill:#fff;}</style>
    <linearGradient
       id="linear-gradient"
       x1="16.51"
       y1="-10.99"
       x2="95.489998"
       y2="67.989998"
       gradientUnits="userSpaceOnUse"
       gradientTransform="translate(-1,-1)">
      <stop
         offset="0"
         stop-color="#127fa4"
         id="stop4" />
      <stop
         offset="1"
         stop-color="#1c1e38"
         id="stop6" />
    </linearGradient>
  </defs>
  <title
     id="title11">syfyArtboard 6 copy 10</title>
  <rect
     class="cls-1"
     x="0"
     y="0"
     width="110"
     height="55"
     id="rect13"
     style="fill:url(#linear-gradient)" />
  <rect
     class="cls-2"
     x="11.25"
     y="8.4499998"
     width="89.129997"
     height="38.099998"
     id="rect15"
     style="fill:none" />
  <g
     id="layer1"
     transform="translate(-1,-1)">
    <g
       id="g399">
      <path
         id="path378"
         class="cls-3"
         d="m 35.1,26.53 v -1.89 h -1.53 a 0.62,0.62 0 0 0 -0.62,0.62 v 12.45 h 2.15 v -6.2 a 4.73,4.73 0 0 1 4.73,-4.73 h 0.06 v -2.14 h -0.06 a 6.81,6.81 0 0 0 -4.73,1.89 m 6.49,-1.27 v 12.45 h 2.14 V 24.64 h -1.52 a 0.62,0.62 0 0 0 -0.62,0.62 m -0.41,-5.1 1.48,1.49 1.49,-1.49 -1.49,-1.49 m 6.9,14.47 v -6.36 h 3.5 v -2.14 h -3.5 V 19 H 48 a 0.62,0.62 0 0 0 -0.62,0.62 v 5 h -2 v 2.14 h 2 v 6.37 a 4.4,4.4 0 0 0 3.19,4.22 l 2.42,0.69 0.6,-2.06 -2.43,-0.69 a 2.26,2.26 0 0 1 -1.64,-2.17 m -25.15,2.79 a 4.74,4.74 0 1 1 4.74,-4.73 4.74,4.74 0 0 1 -4.74,4.73 m 0,-11.61 a 7.09,7.09 0 0 0 -2.1,0.34 22.15,22.15 0 0 0 -2.63,1.09 V 19 h -1.52 a 0.62,0.62 0 0 0 -0.62,0.62 v 11.56 a 6.88,6.88 0 1 0 6.87,-6.88 m 37.16,11.61 a 4.74,4.74 0 1 1 4.73,-4.73 4.75,4.75 0 0 1 -4.73,4.73 m 0,-11.61 a 7,7 0 0 0 -2.1,0.34 22.43,22.43 0 0 0 -2.64,1.09 V 19 h -1.52 a 0.62,0.62 0 0 0 -0.62,0.62 v 11.56 a 6.88,6.88 0 1 0 6.88,-6.88 m 32.94,1.13 v 0 l -1.72,-1.31 -4.1,5.35 -4.07,-5.3 v -0.05 l -1.72,1.31 4.46,5.81 -4.44,5.76 v 0.05 L 84.6,38.36 88.68,33 92.78,38.35 94.5,37 90,31.2"
         inkscape:connector-curvature="0"
         style="fill:#ffffff" />
      <path
         id="path380"
         class="cls-3"
         d="m 76.51,35.94 a 4.74,4.74 0 1 1 4.74,-4.73 4.74,4.74 0 0 1 -4.74,4.73 m 0,-11.61 a 6.88,6.88 0 1 0 6.88,6.88 6.88,6.88 0 0 0 -6.88,-6.88"
         inkscape:connector-curvature="0"
         style="fill:#ffffff" />
    </g>
  </g>
</svg>
