<?xml version="1.0" encoding="UTF-8" standalone="no"?>
<svg
   xmlns:dc="http://purl.org/dc/elements/1.1/"
   xmlns:cc="http://creativecommons.org/ns#"
   xmlns:rdf="http://www.w3.org/1999/02/22-rdf-syntax-ns#"
   xmlns:svg="http://www.w3.org/2000/svg"
   xmlns="http://www.w3.org/2000/svg"
   xmlns:sodipodi="http://sodipodi.sourceforge.net/DTD/sodipodi-0.dtd"
   xmlns:inkscape="http://www.inkscape.org/namespaces/inkscape"
   id="Layer_2"
   data-name="Layer 2"
   viewBox="0 0 110 55"
   version="1.1"
   sodipodi:docname="bbc_iplayer.svg"
   width="110"
   height="55"
   inkscape:version="0.92.4 (5da689c313, 2019-01-14)">
  <metadata
     id="metadata19">
    <rdf:RDF>
      <cc:Work
         rdf:about="">
        <dc:format>image/svg+xml</dc:format>
        <dc:type
           rdf:resource="http://purl.org/dc/dcmitype/StillImage" />
      </cc:Work>
    </rdf:RDF>
  </metadata>
  <sodipodi:namedview
     pagecolor="#ffffff"
     bordercolor="#666666"
     borderopacity="1"
     objecttolerance="10"
     gridtolerance="10"
     guidetolerance="10"
     inkscape:pageopacity="0"
     inkscape:pageshadow="2"
     inkscape:window-width="640"
     inkscape:window-height="480"
     id="namedview17"
     showgrid="false"
     inkscape:zoom="2.6090909"
     inkscape:cx="55"
     inkscape:cy="27.5"
     inkscape:window-x="0"
     inkscape:window-y="0"
     inkscape:window-maximized="0"
     inkscape:current-layer="Layer_2" />
  <defs
     id="defs4">
    <style
       id="style2">
      .cls-1 {
        fill: #0c101c;
      }

      .cls-2 {
        fill: #fff;
      }

      .cls-3 {
        fill: #f54997;
      }
    </style>
  </defs>
  <title
     id="title6">BBC iPlayer</title>
  <rect
     class="cls-1"
     width="110"
     height="55"
     id="rect8"
     x="0"
     y="0"
     style="fill:#0c101c" />
  <g
     id="g14">
    <path
       id="path3068"
       class="cls-2"
       d="m 56.74,18.46 c 0,1.29 -1.6,1.22 -1.6,1.22 h -1.61 v -2.34 h 1.61 c 1.65,0 1.6,1.12 1.6,1.12 m -3.21,-4.68 h 1.22 c 1.28,0.07 1.23,1 1.23,1 C 56,16 54.57,16 54.57,16 h -1 z m 2.92,2.67 a 1.9,1.9 0 0 0 1.09,-1.71 c 0,0 0.17,-2 -2.54,-2.29 H 52 V 21 h 3.43 c 0,0 2.87,0 2.87,-2.41 A 2.22,2.22 0 0 0 56.44,16.45 M 48.68,10.78 H 61.31 V 22.67 H 48.69 Z m -6.48,7.68 c 0,1.29 -1.61,1.22 -1.61,1.22 H 39 v -2.34 h 1.61 c 1.65,0 1.61,1.12 1.61,1.12 M 39,13.78 h 1.23 c 1.27,0.07 1.22,1 1.22,1 C 41.43,16 40,16 40,16 h -1 z m 2.92,2.67 A 1.9,1.9 0 0 0 43,14.74 c 0,0 0.17,-2 -2.53,-2.29 h -3 V 21 h 3.43 c 0,0 2.87,0 2.87,-2.41 A 2.23,2.23 0 0 0 41.9,16.45 M 34.15,10.78 H 46.76 V 22.67 H 34.15 Z m 39.13,2.29 v 1.57 a 7.24,7.24 0 0 0 -3.24,-1 c 0,0 -3.18,-0.06 -3.32,3 0,0 -0.12,2.86 3.28,3 a 5.54,5.54 0 0 0 3.36,-1.06 v 1.64 a 6.82,6.82 0 0 1 -5.6,0.35 4.27,4.27 0 0 1 0.64,-8.09 5.94,5.94 0 0 1 2.52,-0.19 8.88,8.88 0 0 1 2.36,0.68 m -10,9.6 H 75.85 V 10.78 H 63.24 Z"
       inkscape:connector-curvature="0"
       style="fill:#ffffff" />
    <g
       id="g4">
      <path
         id="path6"
         class="cls-3"
         d="m 66.85,33 0.73,-1.82 H 64.1 L 62,37.85 v 0 l -2.24,-6.71 h -3.82 l 0.52,1.25 H 56.4 a 4.89,4.89 0 0 0 -3.95,-1.51 11.1,11.1 0 0 0 -3.58,0.58 c 0,0 -0.78,2.39 -0.87,2.54 a 0.13200379,0.13200379 0 0 0 0.21,0.16 7.92,7.92 0 0 1 3.48,-0.89 c 1.25,0 2.29,0.37 2.34,1.77 a 8.3,8.3 0 0 0 -1.61,-0.15 c -1.5,0 -3.9,0.26 -4.83,1.92 v 0 -9.2 h -3.51 v 3.27 0 c -0.67,-2.13 -2.6,-3.27 -6,-3.27 h -4.45 v 3.69 l 1.51,2.86 a 0.47,0.47 0 0 1 0,0.73 l -1.51,2.91 v 3.69 h 3.64 V 37 h 1.41 c 2.8,0 4.68,-1.3 5.25,-3.33 v 0 7.75 h 3.48 V 40 40 a 3.87,3.87 0 0 0 3.59,1.65 4.58,4.58 0 0 0 3.11,-1.1 c 0.11,0 0.16,-0.1 0.16,0 0,0.32 0.05,0.63 0.05,0.84 H 57.5 A 12.74,12.74 0 0 1 57.29,38.94 V 35.1 a 2.68,2.68 0 0 0 0,-0.63 v 0 l 2.8,7.12 c 0,0 -0.46,1.62 -1.92,1.62 a 3,3 0 0 1 -1.51,-0.37 c -0.1,-0.05 -0.15,0 -0.2,0.11 l -0.84,2.59 a 7.73,7.73 0 0 0 3.12,0.68 c 3,0 4.27,-3.27 5.15,-5.56 L 66,35.2 v 0 a 6.18,6.18 0 0 0 0,1 c 0,3.38 2.55,5.4 5.93,5.4 a 9.14,9.14 0 0 0 3,-0.52 l 0.89,-2.6 c 0.05,-0.15 -0.11,-0.26 -0.21,-0.15 a 6.43,6.43 0 0 1 -3,0.93 c -1.71,0 -2.8,-0.57 -3,-2 h 6.81 v 4.11 H 80 V 37 c 0,-2.24 1.2,-3.22 2.55,-3.22 a 1.77,1.77 0 0 1 0.57,0.1 l 0.78,-2.7 c 0,-0.11 0,-0.16 -0.1,-0.21 a 6.63,6.63 0 0 0 -1,-0.11 3.46,3.46 0 0 0 -3.31,2.14 h -0.06 v -1.86 h -3.17 v 3.38 H 76.21 A 4.57,4.57 0 0 0 71.38,30.94 5.51,5.51 0 0 0 66.85,33 Z m -28.64,1.37 h -0.94 v -4.16 h 0.94 a 2.09,2.09 0 1 1 0,4.16 m 13.62,4.94 c -0.83,0 -1.46,-0.42 -1.46,-1.15 0,-1 0.94,-1.35 2.13,-1.35 0.52,0 1,0 1.46,0 a 2.25,2.25 0 0 1 -2.13,2.45 m 17.57,-4 c 0,-1.19 0.68,-2.13 1.92,-2.13 1.41,0 1.93,1 1.93,2.13 z"
         inkscape:connector-curvature="0"
         style="fill:#f54997" />
      <path
         id="path8"
         class="cls-3"
         d="M 29.58,27.56 H 26.15 V 31 h 3.43 v -1.41 l 5.56,4.88 -5.56,4.94 v -6.65 h -3.43 v 8.68 h 3.43 l 7.69,-7"
         inkscape:connector-curvature="0"
         style="fill:#f54997" />
    </g>
  </g>
</svg>
