<svg id="Layer_2" data-name="Layer 2" xmlns="http://www.w3.org/2000/svg" xmlns:xlink="http://www.w3.org/1999/xlink" viewBox="0 0 110 55"><defs><style>.cls-1{fill:url(#linear-gradient);}.cls-2{fill:#fff;}.cls-3{fill:url(#radial-gradient);}.cls-4{fill:url(#radial-gradient-2);}</style><linearGradient id="linear-gradient" x1="1.84" y1="58.19" x2="108.16" y2="-3.19" gradientUnits="userSpaceOnUse"><stop offset="0" stop-color="#092324"/><stop offset="1" stop-color="#05747c"/></linearGradient><radialGradient id="radial-gradient" cx="47.99" cy="22.71" r="26.59" gradientUnits="userSpaceOnUse"><stop offset="0" stop-color="#fff"/><stop offset="0.02" stop-color="#fff" stop-opacity="0.94"/><stop offset="0.09" stop-color="#fff" stop-opacity="0.75"/><stop offset="0.17" stop-color="#fff" stop-opacity="0.57"/><stop offset="0.25" stop-color="#fff" stop-opacity="0.42"/><stop offset="0.34" stop-color="#fff" stop-opacity="0.29"/><stop offset="0.43" stop-color="#fff" stop-opacity="0.18"/><stop offset="0.53" stop-color="#fff" stop-opacity="0.1"/><stop offset="0.65" stop-color="#fff" stop-opacity="0.04"/><stop offset="0.78" stop-color="#fff" stop-opacity="0.01"/><stop offset="1" stop-color="#fff" stop-opacity="0"/></radialGradient><radialGradient id="radial-gradient-2" cx="45.41" cy="36.6" r="17.76" gradientUnits="userSpaceOnUse"><stop offset="0" stop-color="#fff"/><stop offset="0.03" stop-color="#fff" stop-opacity="0.89"/><stop offset="0.1" stop-color="#fff" stop-opacity="0.71"/><stop offset="0.17" stop-color="#fff" stop-opacity="0.54"/><stop offset="0.24" stop-color="#fff" stop-opacity="0.39"/><stop offset="0.32" stop-color="#fff" stop-opacity="0.27"/><stop offset="0.41" stop-color="#fff" stop-opacity="0.17"/><stop offset="0.5" stop-color="#fff" stop-opacity="0.09"/><stop offset="0.61" stop-color="#fff" stop-opacity="0.04"/><stop offset="0.75" stop-color="#fff" stop-opacity="0.01"/><stop offset="1" stop-color="#fff" stop-opacity="0"/></radialGradient></defs><rect class="cls-1" width="110" height="55"/><path class="cls-2" d="M88.8,17.05h0a3.43,3.43,0,0,0-4.61,1.55L80.52,26l-2.36-7,0-.09a1.08,1.08,0,0,0-.08-.19.52.52,0,0,0-.06-.13.91.91,0,0,0-.09-.17,1,1,0,0,0-.08-.14l-.09-.14-.1-.14-.11-.13-.12-.13-.11-.11-.14-.13L77,17.43l-.17-.12-.08-.06,0,0-.18-.1-.12-.07L76.29,17l-.16-.07L76,16.87l-.17-.05-.15,0-.18,0-.18,0-.14,0h-.33l-.22,0H74.5l-.18,0-.16,0-.14,0-.19.05h0l-.09,0-.19.08-.13.06-.17.09-.14.08-.15.1-.13.09a.69.69,0,0,1-.13.11l-.12.12-.12.11-.12.14-.1.12-.12.16-.06.08L67.3,25.49,66.46,20a3.44,3.44,0,1,0-6.8,1l0,.17a11.17,11.17,0,0,0-18.07-.59A3.31,3.31,0,0,0,39,16.76h0a3.31,3.31,0,0,0-3.91,2.58l-1.43,7-5.24-8.12v0L28.32,18l-.07-.09-.14-.16a2.5,2.5,0,0,0-.23-.23l-.08-.08-.14-.1-.12-.09-.12-.07-.16-.1-.05,0-.37-.16-.17-.07-.12,0-.2-.06h0l-.11,0-.2,0h-.79l-.18,0-.14,0-.18,0-.12,0-.19.06L24.3,17l-.17.08a.57.57,0,0,0-.13.08l-.13.07h0l-.13.1a.71.71,0,0,0-.14.1l0,0a3.53,3.53,0,0,0-.56.6.35.35,0,0,0-.05.08.78.78,0,0,0-.1.15l-.08.12-.05.12a2.55,2.55,0,0,0-.13.29L22.5,19l0,.11a1.6,1.6,0,0,0,0,.21v0L19.36,34.3A3.33,3.33,0,0,0,22,38.22a3.81,3.81,0,0,0,.67.07,3.32,3.32,0,0,0,3.24-2.66l1.43-7,5.24,8.13h0a2.26,2.26,0,0,0,.23.31l.07.08.19.2.09.09.23.17.07.06.32.2.07,0,.27.13.12,0,.24.07.13,0,.08,0,.18,0h.11l.38,0h.35l.17,0h.1l.17,0,.08,0,.2-.06,0,0,.25-.1h0l.23-.12.08,0a.41.41,0,0,0,.11-.07h0l.2-.15.06,0,.22-.2a.6.6,0,0,1,.08-.08l.13-.14.08-.1.11-.15.07-.1.1-.16.06-.1a1.42,1.42,0,0,1,.08-.18l.05-.1.06-.19a.42.42,0,0,0,0-.1,1.33,1.33,0,0,0,.05-.19l0-.11v0l1.08-5.28a11.16,11.16,0,0,0,21.49.34l.73,4.74s0,.06,0,.09l0,.15a1.21,1.21,0,0,0,.05.18L62,36l.07.18,0,.12.09.18a.54.54,0,0,0,0,.11,1.74,1.74,0,0,0,.11.18l.06.09a1,1,0,0,0,.15.2.31.31,0,0,0,.09.11l.16.18.1.09a.86.86,0,0,0,.14.13l.11.08.16.12.05,0,.08.05.09,0,.17.09.08,0a3.7,3.7,0,0,0,.52.2l.08,0,.2,0,.09,0,.19,0H65l.26,0h0a2.43,2.43,0,0,0,.38,0h.15l.23-.05.09,0a2.4,2.4,0,0,0,.38-.12l.06,0,.29-.14.11-.05.23-.15.11-.07.23-.19.07-.06a3.44,3.44,0,0,0,.27-.27l.07-.09.18-.24,0-.06,5.78-8.85L76.67,36h0c0,.1.07.19.11.28a.3.3,0,0,1,0,.08c0,.07.07.14.1.2l0,.09.12.18.06.08.13.18.06.06a1.1,1.1,0,0,0,.21.22l0,0,.19.16.08.06.18.13.09,0a2.4,2.4,0,0,0,.27.16h0l.33.14.09,0a1.68,1.68,0,0,0,.32.09h.06a2.47,2.47,0,0,0,.29.06h.79l.16,0,.11,0,.16,0,.09,0,.18,0,.06,0h0l.29-.11.07,0,.21-.11.07,0,.25-.16.06-.05.18-.15.06,0a2.85,2.85,0,0,0,.41-.44l0-.06a1.43,1.43,0,0,0,.14-.2l0-.06a2.15,2.15,0,0,0,.14-.26l7.34-14.77A3.44,3.44,0,0,0,88.8,17.05ZM50.43,32.64a5.12,5.12,0,1,1,5.13-5.12A5.12,5.12,0,0,1,50.43,32.64Z"/><circle class="cls-3" cx="47.99" cy="22.71" r="26.59"/><circle class="cls-4" cx="45.41" cy="36.6" r="17.76"/></svg>